# File created by Blade
# Date/Time:  Thu Sep 25 21:01:51 2014
# Frame Rate: 120.000 fps
#------------------------------------------------------
:FULLY-SPECIFIED
:DEGREES
3868
root -3.497978 14.188251 2.421611 31.507775 -13.677050 4.746502
Spine -30.940528 -2.737860 -3.554920
Head 0.236169 -3.845651 6.053105
LeftShoulder -19.824142 24.504298 6.610118
LeftArm 20.073964 11.873857 -64.799971
LeftForeArm 6.102779 -0.000000 26.556702
LeftHand -22.036947 -0.000000 -6.103609
LeftHandThumb1 -26.253704 0.000000 33.147579
RightShoulder -23.670781 -1.840237 -28.727207
RightArm -43.250798 -20.455771 93.106925
RightForeArm -36.282804 -0.000000 10.181351
RightHand -5.989313 -0.000000 32.216047
RightHandThumb1 -24.326973 -0.000000 -32.862282
LeftUpLeg -128.524857 12.912792 -21.832719
LeftLeg 113.088082 -0.000000 -0.000000
LeftFoot -19.937934 -8.814574 -0.650960
LeftToeBase 4.495375 -0.000000 -0.000000
RightUpLeg 8.141867 16.410914 -11.271432
RightLeg 131.415921 -0.000000 -0.000000
RightFoot 40.666382 -4.734017 8.445290
RightToeBase 21.167771 -0.000000 -0.000000
3869
root -3.495919 14.193760 2.414874 31.499033 -13.670612 4.788963
Spine -30.853646 -2.876732 -3.482948
Head 0.166096 -3.548177 5.835443
LeftShoulder -19.649278 24.454767 6.636872
LeftArm 20.210268 11.722437 -64.372682
LeftForeArm 5.783563 -0.000000 26.534118
LeftHand -21.960744 -0.000000 -6.259673
LeftHandThumb1 -26.253704 0.000000 33.147579
RightShoulder -23.580452 -1.731585 -28.671130
RightArm -43.181284 -20.384506 92.971797
RightForeArm -36.383578 0.000000 10.089744
RightHand -5.815187 0.000000 32.110047
RightHandThumb1 -24.326973 -0.000000 -32.862282
LeftUpLeg -128.506736 12.870314 -21.876199
LeftLeg 113.043968 -0.000000 -0.000000
LeftFoot -19.887080 -8.755560 -0.553439
LeftToeBase 4.491165 -0.000000 -0.000000
RightUpLeg 8.111454 16.331936 -11.314261
RightLeg 131.397436 -0.000000 -0.000000
RightFoot 40.655012 -4.896074 8.549823
RightToeBase 21.141404 -0.000000 -0.000000
3870
root -3.494303 14.200926 2.407559 31.505524 -13.656609 4.827799
Spine -30.792622 -3.012634 -3.406419
Head 0.131768 -3.245204 5.594424
LeftShoulder -19.415073 24.370260 6.697723
LeftArm 20.291520 11.671598 -63.907985
LeftForeArm 5.658445 -0.000000 26.481213
LeftHand -21.804437 -0.000000 -6.575485
LeftHandThumb1 -26.253704 0.000000 33.147579
RightShoulder -23.484727 -1.649573 -28.588385
RightArm -43.157134 -20.505668 92.984809
RightForeArm -36.257637 -0.000000 10.010889
RightHand -5.694381 -0.000000 31.997884
RightHandThumb1 -24.326973 -0.000000 -32.862282
LeftUpLeg -128.488597 12.816318 -21.910934
LeftLeg 112.987205 -0.000000 -0.000000
LeftFoot -19.854894 -8.714918 -0.556259
LeftToeBase 4.441089 -0.000000 -0.000000
RightUpLeg 8.080180 16.284120 -11.360199
RightLeg 131.353065 -0.000000 -0.000000
RightFoot 40.568636 -4.924956 8.735453
RightToeBase 21.166197 -0.000000 -0.000000
3871
root -3.492254 14.209397 2.398053 31.519482 -13.637776 4.869568
Spine -30.716016 -3.155648 -3.332569
Head 0.060574 -2.926590 5.337813
LeftShoulder -19.216607 24.368674 6.705773
LeftArm 20.518024 11.534446 -63.387431
LeftForeArm 5.409467 0.000000 26.363565
LeftHand -21.502148 -0.000000 -6.824118
LeftHandThumb1 -26.253704 0.000000 33.147579
RightShoulder -23.439920 -1.624975 -28.482012
RightArm -43.049353 -20.820581 93.085997
RightForeArm -35.900446 -0.000000 9.861327
RightHand -5.640105 -0.000000 31.711883
RightHandThumb1 -24.326973 -0.000000 -32.862282
LeftUpLeg -128.470705 12.753655 -21.943396
LeftLeg 112.919306 -0.000000 -0.000000
LeftFoot -19.826401 -8.654477 -0.532445
LeftToeBase 4.479660 -0.000000 -0.000000
RightUpLeg 8.024320 16.193637 -11.395407
RightLeg 131.287136 -0.000000 -0.000000
RightFoot 40.522157 -4.948376 8.708379
RightToeBase 20.968523 -0.000000 -0.000000
3872
root -3.491137 14.218990 2.386485 31.545929 -13.610160 4.897025
Spine -30.627600 -3.301335 -3.252886
Head -0.029059 -2.576975 5.100840
LeftShoulder -18.984912 24.223959 6.758995
LeftArm 20.670493 11.544092 -62.826875
LeftForeArm 5.194428 -0.000000 26.201664
LeftHand -21.529203 -0.000000 -6.952971
LeftHandThumb1 -26.253704 0.000000 33.147579
RightShoulder -23.393072 -1.540924 -28.348508
RightArm -43.076512 -21.292396 93.323232
RightForeArm -35.654846 -0.000000 9.742047
RightHand -5.570081 -0.000000 31.495300
RightHandThumb1 -24.326973 -0.000000 -32.862282
LeftUpLeg -128.462982 12.689530 -21.961553
LeftLeg 112.842779 -0.000000 -0.000000
LeftFoot -19.771881 -8.609288 -0.512447
LeftToeBase 4.380853 -0.000000 -0.000000
RightUpLeg 7.943929 16.098352 -11.420675
RightLeg 131.212219 -0.000000 -0.000000
RightFoot 40.409786 -5.173159 8.935134
RightToeBase 21.559137 -0.000000 -0.000000
3873
root -3.489403 14.228875 2.374579 31.567741 -13.568877 4.933018
Spine -30.527224 -3.449849 -3.177269
Head -0.146992 -2.238315 4.829436
LeftShoulder -18.714795 24.112417 6.831551
LeftArm 20.829042 11.419891 -62.291249
LeftForeArm 4.991728 -0.000000 26.016235
LeftHand -21.258015 0.000000 -7.440464
LeftHandThumb1 -26.253704 0.000000 33.147579
RightShoulder -23.315455 -1.430708 -28.219733
RightArm -43.034269 -21.552593 93.382381
RightForeArm -35.427300 0.000000 9.543155
RightHand -5.569160 -0.000000 31.204087
RightHandThumb1 -24.326973 -0.000000 -32.862282
LeftUpLeg -128.442363 12.611971 -21.969932
LeftLeg 112.754538 -0.000000 -0.000000
LeftFoot -19.732501 -8.549847 -0.454570
LeftToeBase 4.378041 -0.000000 -0.000000
RightUpLeg 7.890091 15.982650 -11.447571
RightLeg 131.058271 -0.000000 -0.000000
RightFoot 40.273223 -5.330680 8.971154
RightToeBase 21.247960 -0.000000 -0.000000
3874
root -3.491676 14.238056 2.359566 31.610360 -13.524609 4.927539
Spine -30.424503 -3.608945 -3.058848
Head -0.281135 -1.871695 4.576930
LeftShoulder -18.487315 23.958291 6.918353
LeftArm 21.022458 11.446842 -61.693511
LeftForeArm 4.742006 -0.000000 25.787386
LeftHand -21.163113 -0.000000 -7.694176
LeftHandThumb1 -26.253704 0.000000 33.147579
RightShoulder -23.251713 -1.282117 -28.135190
RightArm -42.993147 -21.866378 93.459619
RightForeArm -34.880431 -0.000000 9.361755
RightHand -5.724668 -0.000000 31.092781
RightHandThumb1 -24.326973 -0.000000 -32.862282
LeftUpLeg -128.451627 12.563313 -21.925321
LeftLeg 112.659013 -0.000000 -0.000000
LeftFoot -19.667977 -8.547747 -0.440842
LeftToeBase 4.325992 -0.000000 -0.000000
RightUpLeg 7.802681 15.892640 -11.421554
RightLeg 130.902385 -0.000000 -0.000000
RightFoot 40.143906 -5.589352 9.196445
RightToeBase 21.577355 -0.000000 -0.000000
3875
root -3.491172 14.249393 2.343176 31.677901 -13.495689 4.923699
Spine -30.339555 -3.731306 -2.955437
Head -0.418825 -1.506258 4.284535
LeftShoulder -18.230099 23.797007 7.015754
LeftArm 21.221341 11.751879 -60.907807
LeftForeArm 4.175012 -0.000000 25.620602
LeftHand -21.074658 0.000000 -7.618877
LeftHandThumb1 -26.253704 0.000000 33.147579
RightShoulder -23.185567 -1.091263 -28.079454
RightArm -42.937270 -21.972513 93.408316
RightForeArm -34.705738 -0.000000 9.064386
RightHand -5.639208 -0.000000 30.729761
RightHandThumb1 -24.326973 -0.000000 -32.862282
LeftUpLeg -128.485766 12.508667 -21.912248
LeftLeg 112.568041 -0.000000 -0.000000
LeftFoot -19.594212 -8.525719 -0.408360
LeftToeBase 4.200923 -0.000000 -0.000000
RightUpLeg 7.694673 15.814954 -11.420990
RightLeg 130.677863 -0.000000 -0.000000
RightFoot 39.984592 -6.072086 9.520910
RightToeBase 21.893843 -0.000000 -0.000000
